# Blender 4.5.3 LTS
# www.blender.org
o Cube
v 1.000000 2.000000 -1.000000
v 1.000000 0.000000 -1.000000
v 1.000000 2.000000 1.000000
v 1.000000 0.000000 1.000000
v -1.000000 2.000000 -1.000000
v -1.000000 0.000000 -1.000000
v -1.000000 2.000000 1.000000
v -1.000000 0.000000 1.000000
vn -0.0000 1.0000 -0.0000
vn -0.0000 -0.0000 1.0000
vn -1.0000 -0.0000 -0.0000
vn -0.0000 -1.0000 -0.0000
vn 1.0000 -0.0000 -0.0000
vn -0.0000 -0.0000 -1.0000
s 0
f 5//1 3//1 1//1
f 3//2 8//2 4//2
f 7//3 6//3 8//3
f 2//4 8//4 6//4
f 1//5 4//5 2//5
f 5//6 2//6 6//6
f 5//1 7//1 3//1
f 3//2 7//2 8//2
f 7//3 5//3 6//3
f 2//4 4//4 8//4
f 1//5 3//5 4//5
f 5//6 1//6 2//6
o Plane
v -30.637819 0.000000 21.817461
v 30.637819 0.000000 21.817461
v -30.637819 0.000000 -21.817461
v 30.637819 0.000000 -21.817461
vn 0.0000 1.0000 0.0000
s 0
f 10//7 11//7 9//7
f 10//7 12//7 11//7
o Cylinder
v 0.000000 0.000000 5.000000
v 0.000000 6.000000 5.000000
v 0.195090 0.000000 5.019215
v 0.195090 6.000000 5.019215
v 0.382683 0.000000 5.076120
v 0.382683 6.000000 5.076120
v 0.555570 0.000000 5.168530
v 0.555570 6.000000 5.168530
v 0.707107 0.000000 5.292893
v 0.707107 6.000000 5.292893
v 0.831470 0.000000 5.444430
v 0.831470 6.000000 5.444430
v 0.923880 0.000000 5.617317
v 0.923880 6.000000 5.617317
v 0.980785 0.000000 5.804910
v 0.980785 6.000000 5.804910
v 1.000000 0.000000 6.000000
v 1.000000 6.000000 6.000000
v 0.980785 0.000000 6.195090
v 0.980785 6.000000 6.195090
v 0.923880 0.000000 6.382683
v 0.923880 6.000000 6.382683
v 0.831470 0.000000 6.555570
v 0.831470 6.000000 6.555570
v 0.707107 0.000000 6.707107
v 0.707107 6.000000 6.707107
v 0.555570 0.000000 6.831470
v 0.555570 6.000000 6.831470
v 0.382683 0.000000 6.923880
v 0.382683 6.000000 6.923880
v 0.195090 0.000000 6.980785
v 0.195090 6.000000 6.980785
v 0.000000 0.000000 7.000000
v 0.000000 6.000000 7.000000
v -0.195090 0.000000 6.980785
v -0.195090 6.000000 6.980785
v -0.382683 0.000000 6.923880
v -0.382683 6.000000 6.923880
v -0.555570 0.000000 6.831470
v -0.555570 6.000000 6.831470
v -0.707107 0.000000 6.707107
v -0.707107 6.000000 6.707107
v -0.831470 0.000000 6.555570
v -0.831470 6.000000 6.555570
v -0.923880 0.000000 6.382683
v -0.923880 6.000000 6.382683
v -0.980785 0.000000 6.195090
v -0.980785 6.000000 6.195090
v -1.000000 0.000000 6.000000
v -1.000000 6.000000 6.000000
v -0.980785 0.000000 5.804910
v -0.980785 6.000000 5.804910
v -0.923880 0.000000 5.617317
v -0.923880 6.000000 5.617317
v -0.831470 0.000000 5.444430
v -0.831470 6.000000 5.444430
v -0.707107 0.000000 5.292893
v -0.707107 6.000000 5.292893
v -0.555570 0.000000 5.168530
v -0.555570 6.000000 5.168530
v -0.382683 0.000000 5.076120
v -0.382683 6.000000 5.076120
v -0.195090 0.000000 5.019215
v -0.195090 6.000000 5.019215
vn 0.0980 -0.0000 -0.9952
vn 0.2903 -0.0000 -0.9569
vn 0.4714 -0.0000 -0.8819
vn 0.6344 -0.0000 -0.7730
vn 0.7730 -0.0000 -0.6344
vn 0.8819 -0.0000 -0.4714
vn 0.9569 -0.0000 -0.2903
vn 0.9952 -0.0000 -0.0980
vn 0.9952 -0.0000 0.0980
vn 0.9569 -0.0000 0.2903
vn 0.8819 -0.0000 0.4714
vn 0.7730 -0.0000 0.6344
vn 0.6344 -0.0000 0.7730
vn 0.4714 -0.0000 0.8819
vn 0.2903 -0.0000 0.9569
vn 0.0980 -0.0000 0.9952
vn -0.0980 -0.0000 0.9952
vn -0.2903 -0.0000 0.9569
vn -0.4714 -0.0000 0.8819
vn -0.6344 -0.0000 0.7730
vn -0.7730 -0.0000 0.6344
vn -0.8819 -0.0000 0.4714
vn -0.9569 -0.0000 0.2903
vn -0.9952 -0.0000 0.0980
vn -0.9952 -0.0000 -0.0980
vn -0.9569 -0.0000 -0.2903
vn -0.8819 -0.0000 -0.4714
vn -0.7730 -0.0000 -0.6344
vn -0.6344 -0.0000 -0.7730
vn -0.4714 -0.0000 -0.8819
vn -0.0000 1.0000 -0.0000
vn -0.2903 -0.0000 -0.9569
vn -0.0980 -0.0000 -0.9952
vn -0.0000 -1.0000 -0.0000
s 0
f 14//8 15//8 13//8
f 16//9 17//9 15//9
f 18//10 19//10 17//10
f 20//11 21//11 19//11
f 22//12 23//12 21//12
f 24//13 25//13 23//13
f 26//14 27//14 25//14
f 28//15 29//15 27//15
f 30//16 31//16 29//16
f 32//17 33//17 31//17
f 34//18 35//18 33//18
f 36//19 37//19 35//19
f 38//20 39//20 37//20
f 40//21 41//21 39//21
f 42//22 43//22 41//22
f 44//23 45//23 43//23
f 46//24 47//24 45//24
f 48//25 49//25 47//25
f 50//26 51//26 49//26
f 52//27 53//27 51//27
f 54//28 55//28 53//28
f 56//29 57//29 55//29
f 58//30 59//30 57//30
f 60//31 61//31 59//31
f 62//32 63//32 61//32
f 64//33 65//33 63//33
f 66//34 67//34 65//34
f 68//35 69//35 67//35
f 70//36 71//36 69//36
f 72//37 73//37 71//37
f 50//38 34//38 18//38
f 74//39 75//39 73//39
f 76//40 13//40 75//40
f 43//41 59//41 75//41
f 14//8 16//8 15//8
f 16//9 18//9 17//9
f 18//10 20//10 19//10
f 20//11 22//11 21//11
f 22//12 24//12 23//12
f 24//13 26//13 25//13
f 26//14 28//14 27//14
f 28//15 30//15 29//15
f 30//16 32//16 31//16
f 32//17 34//17 33//17
f 34//18 36//18 35//18
f 36//19 38//19 37//19
f 38//20 40//20 39//20
f 40//21 42//21 41//21
f 42//22 44//22 43//22
f 44//23 46//23 45//23
f 46//24 48//24 47//24
f 48//25 50//25 49//25
f 50//26 52//26 51//26
f 52//27 54//27 53//27
f 54//28 56//28 55//28
f 56//29 58//29 57//29
f 58//30 60//30 59//30
f 60//31 62//31 61//31
f 62//32 64//32 63//32
f 64//33 66//33 65//33
f 66//34 68//34 67//34
f 68//35 70//35 69//35
f 70//36 72//36 71//36
f 72//37 74//37 73//37
f 18//38 16//38 14//38
f 14//38 76//38 74//38
f 74//38 72//38 70//38
f 70//38 68//38 66//38
f 66//38 64//38 62//38
f 62//38 60//38 58//38
f 58//38 56//38 54//38
f 54//38 52//38 50//38
f 50//38 48//38 46//38
f 46//38 44//38 42//38
f 42//38 40//38 38//38
f 38//38 36//38 34//38
f 34//38 32//38 30//38
f 30//38 28//38 26//38
f 26//38 24//38 22//38
f 22//38 20//38 18//38
f 18//38 14//38 74//38
f 74//38 70//38 66//38
f 66//38 62//38 58//38
f 58//38 54//38 50//38
f 50//38 46//38 42//38
f 42//38 38//38 34//38
f 34//38 30//38 26//38
f 26//38 22//38 18//38
f 18//38 74//38 66//38
f 66//38 58//38 50//38
f 50//38 42//38 34//38
f 34//38 26//38 18//38
f 18//38 66//38 50//38
f 74//39 76//39 75//39
f 76//40 14//40 13//40
f 75//41 13//41 15//41
f 15//41 17//41 19//41
f 19//41 21//41 23//41
f 23//41 25//41 27//41
f 27//41 29//41 31//41
f 31//41 33//41 35//41
f 35//41 37//41 39//41
f 39//41 41//41 43//41
f 43//41 45//41 47//41
f 47//41 49//41 51//41
f 51//41 53//41 55//41
f 55//41 57//41 59//41
f 59//41 61//41 63//41
f 63//41 65//41 67//41
f 67//41 69//41 71//41
f 71//41 73//41 75//41
f 75//41 15//41 19//41
f 19//41 23//41 27//41
f 27//41 31//41 35//41
f 35//41 39//41 43//41
f 43//41 47//41 51//41
f 51//41 55//41 59//41
f 59//41 63//41 67//41
f 67//41 71//41 75//41
f 75//41 19//41 27//41
f 27//41 35//41 43//41
f 43//41 51//41 59//41
f 59//41 67//41 75//41
f 75//41 27//41 43//41
o Cone
v 0.000000 0.000000 -7.000000
v 0.195090 0.000000 -6.980785
v 0.382683 0.000000 -6.923880
v 0.555570 0.000000 -6.831470
v 0.707107 0.000000 -6.707107
v 0.831470 0.000000 -6.555570
v 0.923880 0.000000 -6.382683
v 0.980785 0.000000 -6.195090
v 1.000000 0.000000 -6.000000
v 0.980785 0.000000 -5.804910
v 0.923880 0.000000 -5.617317
v 0.831470 0.000000 -5.444430
v 0.707107 0.000000 -5.292893
v 0.555570 0.000000 -5.168530
v 0.382683 0.000000 -5.076120
v 0.195090 0.000000 -5.019215
v 0.000000 0.000000 -5.000000
v -0.195090 0.000000 -5.019215
v -0.382683 0.000000 -5.076120
v -0.555570 0.000000 -5.168530
v -0.707107 0.000000 -5.292893
v -0.831470 0.000000 -5.444430
v -0.923880 0.000000 -5.617317
v -0.980785 0.000000 -5.804910
v -1.000000 0.000000 -6.000000
v -0.980785 0.000000 -6.195090
v -0.923880 0.000000 -6.382683
v -0.831470 0.000000 -6.555570
v -0.707107 0.000000 -6.707107
v -0.555570 0.000000 -6.831470
v -0.382683 0.000000 -6.923880
v -0.195090 0.000000 -6.980785
v 0.000000 2.000000 -6.000000
vn 0.0878 0.4455 -0.8910
vn 0.2599 0.4455 -0.8567
vn 0.4220 0.4455 -0.7896
vn 0.5680 0.4455 -0.6921
vn 0.6921 0.4455 -0.5680
vn 0.7896 0.4455 -0.4220
vn 0.8567 0.4455 -0.2599
vn 0.8910 0.4455 -0.0878
vn 0.8910 0.4455 0.0878
vn 0.8567 0.4455 0.2599
vn 0.7896 0.4455 0.4220
vn 0.6921 0.4455 0.5680
vn 0.5680 0.4455 0.6921
vn 0.4220 0.4455 0.7896
vn 0.2599 0.4455 0.8567
vn 0.0878 0.4455 0.8910
vn -0.0878 0.4455 0.8910
vn -0.2599 0.4455 0.8567
vn -0.4220 0.4455 0.7896
vn -0.5680 0.4455 0.6921
vn -0.6921 0.4455 0.5680
vn -0.7896 0.4455 0.4220
vn -0.8567 0.4455 0.2599
vn -0.8910 0.4455 0.0878
vn -0.8910 0.4455 -0.0878
vn -0.8567 0.4455 -0.2599
vn -0.7896 0.4455 -0.4220
vn -0.6921 0.4455 -0.5680
vn -0.5680 0.4455 -0.6921
vn -0.4220 0.4455 -0.7896
vn -0.0000 -1.0000 -0.0000
vn -0.2599 0.4455 -0.8567
vn -0.0878 0.4455 -0.8910
s 0
f 77//42 109//42 78//42
f 78//43 109//43 79//43
f 79//44 109//44 80//44
f 80//45 109//45 81//45
f 81//46 109//46 82//46
f 82//47 109//47 83//47
f 83//48 109//48 84//48
f 84//49 109//49 85//49
f 85//50 109//50 86//50
f 86//51 109//51 87//51
f 87//52 109//52 88//52
f 88//53 109//53 89//53
f 89//54 109//54 90//54
f 90//55 109//55 91//55
f 91//56 109//56 92//56
f 92//57 109//57 93//57
f 93//58 109//58 94//58
f 94//59 109//59 95//59
f 95//60 109//60 96//60
f 96//61 109//61 97//61
f 97//62 109//62 98//62
f 98//63 109//63 99//63
f 99//64 109//64 100//64
f 100//65 109//65 101//65
f 101//66 109//66 102//66
f 102//67 109//67 103//67
f 103//68 109//68 104//68
f 104//69 109//69 105//69
f 105//70 109//70 106//70
f 106//71 109//71 107//71
f 92//72 100//72 108//72
f 107//73 109//73 108//73
f 108//74 109//74 77//74
f 108//72 77//72 78//72
f 78//72 79//72 80//72
f 80//72 81//72 82//72
f 82//72 83//72 84//72
f 84//72 85//72 86//72
f 86//72 87//72 88//72
f 88//72 89//72 90//72
f 90//72 91//72 92//72
f 92//72 93//72 94//72
f 94//72 95//72 96//72
f 96//72 97//72 98//72
f 98//72 99//72 100//72
f 100//72 101//72 102//72
f 102//72 103//72 104//72
f 104//72 105//72 106//72
f 106//72 107//72 108//72
f 108//72 78//72 80//72
f 80//72 82//72 84//72
f 84//72 86//72 88//72
f 88//72 90//72 92//72
f 92//72 94//72 96//72
f 96//72 98//72 100//72
f 100//72 102//72 104//72
f 104//72 106//72 108//72
f 108//72 80//72 84//72
f 84//72 88//72 92//72
f 92//72 96//72 100//72
f 100//72 104//72 108//72
f 108//72 84//72 92//72
